<svg xmlns="http://www.w3.org/2000/svg" viewBox="0 0 48 48" fill="none">
  <g fill="#C5C5C5">
    <rect x="12" y="13" width="9" height="1"/>
    <rect x="23" y="13" width="13" height="1"/>
    <rect x="12" y="14" width="9" height="1"/>
    <rect x="23" y="14" width="13" height="1"/>
    <rect x="12" y="15" width="8" height="1"/>
    <rect x="22" y="15" width="14" height="1"/>
    <rect x="12" y="16" width="8" height="1"/>
    <rect x="22" y="16" width="14" height="1"/>
    <rect x="12" y="17" width="7" height="1"/>
    <rect x="21" y="17" width="15" height="1"/>
    <rect x="12" y="18" width="7" height="1"/>
    <rect x="30" y="18" width="6" height="1"/>
    <rect x="12" y="19" width="6" height="1"/>
    <rect x="31" y="19" width="5" height="1"/>
    <rect x="12" y="20" width="6" height="1"/>
    <rect x="31" y="20" width="5" height="1"/>
    <rect x="12" y="21" width="5" height="1"/>
    <rect x="23" y="21" width="2" height="1"/>
    <rect x="31" y="21" width="5" height="1"/>
    <rect x="12" y="22" width="5" height="1"/>
    <rect x="22" y="22" width="4" height="1"/>
    <rect x="31" y="22" width="5" height="1"/>
    <rect x="12" y="23" width="5" height="1"/>
    <rect x="21" y="23" width="6" height="1"/>
    <rect x="31" y="23" width="5" height="1"/>
    <rect x="12" y="24" width="5" height="1"/>
    <rect x="21" y="24" width="6" height="1"/>
    <rect x="31" y="24" width="5" height="1"/>
    <rect x="12" y="25" width="5" height="1"/>
    <rect x="22" y="25" width="4" height="1"/>
    <rect x="31" y="25" width="5" height="1"/>
    <rect x="12" y="26" width="5" height="1"/>
    <rect x="23" y="26" width="2" height="1"/>
    <rect x="31" y="26" width="5" height="1"/>
    <rect x="12" y="27" width="5" height="1"/>
    <rect x="31" y="27" width="5" height="1"/>
    <rect x="12" y="28" width="5" height="1"/>
    <rect x="31" y="28" width="5" height="1"/>
    <rect x="12" y="29" width="5" height="1"/>
    <rect x="20" y="29" width="16" height="1"/>
    <rect x="12" y="30" width="4" height="1"/>
    <rect x="19" y="30" width="17" height="1"/>
    <rect x="12" y="31" width="3" height="1"/>
    <rect x="18" y="31" width="18" height="1"/>
    <rect x="12" y="32" width="2" height="1"/>
    <rect x="17" y="32" width="19" height="1"/>
    <rect x="16" y="33" width="20" height="1"/>
    <rect x="15" y="34" width="21" height="1"/>
  </g>
</svg>
