<svg xmlns="http://www.w3.org/2000/svg" viewBox="0 0 100 100" fill="none">
  <defs>
    <linearGradient id="g" x1="0%" y1="0%" x2="100%" y2="100%">
      <stop offset="0%" stop-color="#3C99D4"/>
      <stop offset="100%" stop-color="#1F6EAB"/>
    </linearGradient>
  </defs>
  <path fill="url(#g)" d="M70.5 7.2L25.8 28.4c-1.6.8-2.6 2.4-2.6 4.2v34.8c0 1.8 1 3.4 2.6 4.2l44.7 21.2c2.4 1.1 5.2-.6 5.2-3.3V10.5c0-2.7-2.8-4.4-5.2-3.3z"/>
  <path fill="#fff" fill-opacity="0.95" d="M70.5 7.2L42 48.5l28.5 41.3V7.2z"/>
  <path fill="#2480C1" d="M25.8 28.4L42 48.5 25.8 68.6V28.4z"/>
  <path fill="#1B5E8F" fill-opacity="0.85" d="M42 48.5l28.5 41.3-45.7-21.2c-.6-.3-1-.7-1.3-1.2L42 48.5z"/>
</svg>
