<svg width="419" height="169" viewBox="0 0 419 169" fill="none" xmlns="http://www.w3.org/2000/svg">
<path d="M130.29 44.6807C131.389 44.6809 132.281 45.5714 132.281 46.6719V122.332L132.283 122.33C132.283 123.429 131.392 124.321 130.292 124.321H57.4473C55.6729 124.321 54.786 122.176 56.04 120.922L71.9678 104.995C72.3417 104.621 72.8476 104.411 73.375 104.411H110.379C111.478 104.411 112.371 103.519 112.371 102.419V66.5811C112.371 65.4822 111.48 64.59 110.379 64.5898H80.3223C78.8653 64.5898 77.9023 63.0762 78.5176 61.7568L85.9512 45.8291C86.2775 45.1288 86.9815 44.6807 87.7559 44.6807H130.29ZM75.4014 44.6787C76.8582 44.679 77.8215 46.1924 77.2061 47.5117L64.7783 74.1436L64.7764 74.1455C64.6531 74.4081 64.5899 74.6956 64.5898 74.9863V101.596C64.5896 102.123 64.3795 102.629 64.0059 103.003L48.0781 118.931C46.824 120.185 44.6791 119.295 44.6787 117.522V46.6699C44.6789 45.5712 45.5695 44.6789 46.6699 44.6787H75.4014ZM255.055 68.0029C269.685 68.0029 279.604 78.1534 279.604 93.291C279.603 108.428 269.73 118.486 255.055 118.486C240.425 118.486 230.551 108.426 230.551 93.291C230.551 78.1555 240.425 68.003 255.055 68.0029ZM304.981 68.0029C317.554 68.0029 325.69 74.2678 325.964 84.3281H313.483C313.391 80.4403 310.102 77.5596 305.346 77.5596C300.59 77.5596 297.94 79.7991 297.94 82.6816C297.94 85.1506 300.088 86.7513 303.792 87.5293L312.936 89.3125C322.672 91.2329 327.153 95.4407 327.153 102.528C327.153 112.177 318.377 118.486 305.76 118.486L305.755 118.484C293.23 118.484 284.224 112.494 283.401 102.114H296.659C297.161 106.321 300.271 108.836 305.528 108.836C310.511 108.836 313.574 106.733 313.574 103.761C313.574 101.2 311.242 99.6901 307.312 98.9121L298.854 97.2666C289.483 95.4383 284.5 90.6825 284.5 83.1836C284.5 74.0384 292.409 68.0029 304.981 68.0029ZM352.343 68.0029C364.915 68.0029 373.052 74.2678 373.326 84.3281H360.846C360.754 80.4405 357.464 77.5597 352.708 77.5596C347.952 77.5596 345.303 79.7991 345.303 82.6816C345.303 85.1506 347.45 86.7513 351.153 87.5293L360.297 89.3125C370.034 91.2328 374.516 95.4406 374.516 102.528C374.515 112.177 365.738 118.486 353.121 118.486L353.119 118.484C340.594 118.484 331.588 112.494 330.765 102.114H344.023C344.527 106.321 347.634 108.836 352.892 108.836C357.875 108.836 360.937 106.733 360.938 103.761C360.938 101.2 358.606 99.6901 354.675 98.9121L346.218 97.2666C336.845 95.4384 331.862 90.6826 331.862 83.1836C331.862 74.0385 339.771 68.0031 352.343 68.0029ZM185.102 82.0469C186.329 86.0641 188.392 93.2276 189.971 99.0693C191.55 93.2277 193.61 86.062 194.794 82.0469L205.451 50.373H225.143V118.375H211.942V86.0615C211.942 81.3149 212.205 73.2375 212.38 65.7529C210.143 73.6931 207.863 81.7255 206.461 86.0615L195.409 118.375H184.445L173.263 86.0615C171.904 81.8626 169.71 74.3333 167.473 66.7119C167.647 73.9226 167.867 81.5438 167.867 86.0615V118.375H154.622V50.373H174.313L185.102 82.0469ZM255.055 78.9307C248.518 78.9307 244.128 84.2811 244.128 93.2891C244.128 102.297 248.518 107.557 255.055 107.557C261.637 107.557 266.026 102.252 266.026 93.2891C266.026 84.3261 261.592 78.9307 255.055 78.9307ZM87.0742 73.9619C87.8521 73.1843 89.1118 73.1842 89.8896 73.9619L99.0205 83.0928C99.7979 83.8706 99.798 85.1304 99.0205 85.9082L89.8896 95.0391C89.1118 95.8168 87.8522 95.8165 87.0742 95.0391L77.9434 85.9082C77.1656 85.1303 77.1656 83.8707 77.9434 83.0928L87.0742 73.9619Z" fill="white"/>
</svg>
